<?xml version="1.0" encoding="UTF-8" standalone="no"?>
<svg
   viewBox="0 0 721.86 324.74"
   version="1.1"
   id="svg12"
   sodipodi:docname="marray_logo.svg"
   inkscape:version="1.4 (86a8ad7, 2024-10-11)"
   xmlns:inkscape="http://www.inkscape.org/namespaces/inkscape"
   xmlns:sodipodi="http://sodipodi.sourceforge.net/DTD/sodipodi-0.dtd"
   xmlns="http://www.w3.org/2000/svg"
   xmlns:svg="http://www.w3.org/2000/svg">
  <sodipodi:namedview
     id="namedview12"
     pagecolor="#ffffff"
     bordercolor="#000000"
     borderopacity="0.25"
     inkscape:showpageshadow="2"
     inkscape:pageopacity="0.0"
     inkscape:pagecheckerboard="0"
     inkscape:deskcolor="#d1d1d1"
     inkscape:zoom="1"
     inkscape:cx="170.5"
     inkscape:cy="157.5"
     inkscape:window-width="1920"
     inkscape:window-height="1009"
     inkscape:window-x="-8"
     inkscape:window-y="-8"
     inkscape:window-maximized="1"
     inkscape:current-layer="svg12" />
  <defs
     id="defs1">
    <style
       id="style1">.cls-1{fill:#4d77cf;}.cls-2{fill:#4dabcf;}</style>
    <clipPath
       clipPathUnits="userSpaceOnUse"
       id="clipPath13">
      <rect
         style="fill:#333333;stroke-width:0.953712"
         id="rect13"
         width="38.145"
         height="91.045403"
         x="286.32999"
         y="124.83" />
    </clipPath>
    <clipPath
       clipPathUnits="userSpaceOnUse"
       id="clipPath13-1">
      <rect
         style="fill:#333333;stroke-width:0.953712"
         id="rect13-1"
         width="38.145"
         height="91.045403"
         x="286.32999"
         y="124.83" />
    </clipPath>
    <clipPath
       clipPathUnits="userSpaceOnUse"
       id="clipPath13-7">
      <rect
         style="fill:#333333;stroke-width:0.953712"
         id="rect13-6"
         width="38.145"
         height="91.045403"
         x="286.32999"
         y="124.83" />
    </clipPath>
    <clipPath
       clipPathUnits="userSpaceOnUse"
       id="clipPath13-1-1">
      <rect
         style="fill:#333333;stroke-width:0.953712"
         id="rect13-1-4"
         width="38.145"
         height="91.045403"
         x="286.32999"
         y="124.83" />
    </clipPath>
    <clipPath
       clipPathUnits="userSpaceOnUse"
       id="clipPath13-16">
      <rect
         style="fill:#333333;stroke-width:0.953712"
         id="rect13-8"
         width="38.145"
         height="91.045403"
         x="286.32999"
         y="124.83" />
    </clipPath>
    <clipPath
       clipPathUnits="userSpaceOnUse"
       id="clipPath13-1-5">
      <rect
         style="fill:#333333;stroke-width:0.953712"
         id="rect13-1-7"
         width="38.145"
         height="91.045403"
         x="286.32999"
         y="124.83" />
    </clipPath>
  </defs>
  <path
     id="path27"
     style="fill:#4d77cf;fill-opacity:1"
     d="m 43.856156,111.25391 v 110.71679 0.0625 l 22.65625,11.96703 v -4.72461 -36.3457 -18.2793 c 0,-0.31707 -0.0129,-0.6654 -0.0176,-0.99367 -0.0191,-1.35075 -0.0669,-2.76972 -0.14844,-4.30107 -0.10136,-1.90347 -0.21418,-3.85218 -0.3789,-5.85247 0.16472,2.00029 0.27754,3.949 0.3789,5.85247 0.0815,1.53133 0.12929,2.9503 0.14844,4.30107 v -9.20899 l 11.28125,20.19313 14.41211,25.79803 14.410164,-10.57411 11.28125,-8.27563 v 9.20899 c 0.0192,-1.33052 0.0669,-2.69904 0.14844,-4.14425 0.10136,-1.79641 0.21418,-3.62592 0.3789,-5.45221 -0.16472,1.82629 -0.27753,3.65581 -0.3789,5.45221 -0.0815,1.44523 -0.12929,2.8137 -0.14844,4.14425 -0.005,0.32315 -0.0176,0.658 -0.0176,0.97507 v 18.2793 36.3457 4.72461 l 22.65625,11.96703 v -0.0625 -110.71679 l -13.51953,-7.14101 c -0.94554,-0.48934 -1.88998,-0.91649 -2.82617,-1.27795 -0.70843,-0.28549 -1.40009,-0.45865 -2.05274,-0.51394 -0.63848,-0.0341 -1.22735,0.0514 -1.74805,0.25442 -0.67299,0.28725 -1.30435,0.63948 -1.88867,1.05513 l -0.60351,0.4449 -25.693364,18.90338 -25.69141,-46.0448 -0.60351,-1.08244 c -0.58432,-1.03293 -1.21568,-2.05213 -1.88868,-3.05033 -0.52068,-0.75303 -1.10956,-1.46062 -1.74804,-2.10106 -0.65265,-0.63417 -1.34431,-1.19167 -2.05274,-1.65457 -0.93619,-0.62753 -1.88063,-1.19805 -2.82617,-1.70762 z m 22.63867,70.61008 c 0,0.88696 -0.0136,1.79916 -0.0391,2.7313 -0.0254,0.93219 -0.0626,1.88438 -0.11328,2.85227 -0.0507,0.96788 -0.11137,1.95337 -0.18555,2.94692 -0.0742,0.99354 -0.16183,1.99518 -0.26953,2.99631 0.1077,-1.00113 0.19536,-2.00275 0.26953,-2.99631 0.0742,-0.99354 0.13486,-1.97903 0.18555,-2.94692 0.0507,-0.96788 0.0879,-1.92007 0.11328,-2.85227 0.0254,-0.9322 0.0391,-1.84434 0.0391,-2.7313 z m 51.384774,27.14142 c 0,0.88696 0.0136,1.81352 0.0391,2.7726 0.0254,0.95903 0.0626,1.95052 0.11328,2.97195 0.0507,1.02144 0.11137,2.07101 0.18555,3.14292 0.0742,1.07194 0.16183,2.16614 0.26953,3.28105 -0.1077,-1.11491 -0.19536,-2.20913 -0.26953,-3.28105 -0.0742,-1.07192 -0.13486,-2.12149 -0.18555,-3.14292 -0.0507,-1.02144 -0.0879,-2.01293 -0.11328,-2.97195 -0.0254,-0.95902 -0.0391,-1.88564 -0.0391,-2.7726 z m -51.687504,20.50532 c -0.25624,0.21991 -0.53417,0.41185 -0.83008,0.57522 -0.29591,0.16338 -0.60952,0.29752 -0.94141,0.40314 -0.33189,0.10562 -0.68074,0.18268 -1.04492,0.22932 -0.36417,0.0466 -0.74395,0.0635 -1.13672,0.05 -0.39655,-0.0468 -0.80117,-0.11918 -1.21093,-0.21579 -0.40977,-0.0966 -0.82466,-0.21707 -1.24415,-0.36224 -0.41948,-0.14516 -0.84382,-0.31597 -1.26953,-0.50845 -0.4257,-0.19246 -0.85281,-0.40695 -1.28125,-0.64556 0.42844,0.23851 0.85555,0.4529 1.28125,0.64556 0.42571,0.19246 0.85005,0.3633 1.26953,0.50845 0.41949,0.14518 0.83438,0.26564 1.24415,0.36224 0.40976,0.0966 0.81438,0.16897 1.21093,0.21579 0.39277,0.0136 0.77255,-0.003 1.13672,-0.05 0.36418,-0.0466 0.71303,-0.1237 1.04492,-0.22932 0.33189,-0.10562 0.6455,-0.23976 0.94141,-0.40314 0.29591,-0.16337 0.57384,-0.35531 0.83008,-0.57522 z m 51.990234,27.46122 c 0.25624,0.49061 0.53399,0.97606 0.83008,1.45212 0.29609,0.47607 0.61123,0.94232 0.94336,1.39867 0.33213,0.45636 0.68056,0.90172 1.04492,1.33318 0.36436,0.43145 0.74395,0.84944 1.13672,1.2508 0.39656,0.37211 0.80135,0.72728 1.21094,1.06345 0.40958,0.33618 0.8249,0.65422 1.24414,0.95208 0.41924,0.29784 0.84205,0.5745 1.26758,0.83164 0.42552,0.25716 0.85281,0.49396 1.28125,0.70796 -0.42844,-0.2141 -0.85573,-0.451 -1.28125,-0.70796 -0.42553,-0.25716 -0.84834,-0.53379 -1.26758,-0.83164 -0.41924,-0.29785 -0.83456,-0.6159 -1.24414,-0.95208 -0.40959,-0.33617 -0.81438,-0.69134 -1.21094,-1.06345 -0.39277,-0.40136 -0.77236,-0.81935 -1.13672,-1.2508 -0.36436,-0.43146 -0.71279,-0.87682 -1.04492,-1.33318 -0.33213,-0.45635 -0.64727,-0.9226 -0.94336,-1.39867 -0.29609,-0.47606 -0.57384,-0.96151 -0.83008,-1.45212 z" />
  <polygon
     class="cls-2"
     points="54.49,98 92.63,117.15 132.38,96.4 95.25,77.66 "
     id="polygon5"
     style="fill:#333333" />
  <polygon
     class="cls-2"
     points="147.95,144.93 109.75,125.75 149.41,104.99 188.34,124.65 "
     id="polygon6" />
  <polygon
     class="cls-2"
     points="205.63,115.96 166.62,96.28 201.41,77.94 241.41,98 "
     id="polygon7" />
  <polygon
     class="cls-2"
     points="112.56,69.02 149.67,87.73 184.19,69.3 148.18,51.24 "
     id="polygon8" />
  <polygon
     class="cls-2"
     points="199.66,251.73 199.62,202.57 156.04,224.36 156.04,273.5 "
     id="polygon9" />
  <polygon
     class="cls-2"
     points="156.04,158.4 156.04,207.06 199.6,185.41 199.55,136.77 "
     id="polygon10" />
  <polygon
     class="cls-2"
     points="214.76,244.19 214.73,195.09 251.97,176.3 251.97,225.63 "
     id="polygon11"
     style="fill:#333333" />
  <polygon
     class="cls-2"
     points="214.69,129.24 214.72,177.98 251.97,159.05 251.97,110.71 "
     id="polygon12"
     style="fill:#333333" />
</svg>
